<?xml version="1.0" encoding="utf-8"?>
<!-- Generator: Adobe Illustrator 25.2.0, SVG Export Plug-In . SVG Version: 6.00 Build 0)  -->
<svg version="1.1" id="Layer_1" xmlns="http://www.w3.org/2000/svg" xmlns:xlink="http://www.w3.org/1999/xlink" x="0px" y="0px"
	 viewBox="0 0 1920 1080" style="enable-background:new 0 0 1920 1080;" xml:space="preserve">
<style type="text/css">
	.st0{fill:#FFFFFF;}
	.st1{fill:#1E2346;}
	.st2{fill:#516EB4;}
</style>
<rect class="st0" width="1920" height="1080"/>
<rect class="st1" width="1920" height="1080"/>
<g>
	<path class="st2" d="M1310.9,0L890.35,328.84c-32.8,25.76-37.8,73.54-11.04,105.53l0,0c25.73,30.77,71.3,35.39,102.69,10.43
		l150.5-119.04c28.7-22.73,70.49-17.32,92.46,11.97l0,0c20.95,27.93,16.12,67.41-10.93,89.47L932.47,656.51
		c-31.87,26.11-36.76,73.02-10.95,105.13l0,0c25.76,32.06,72.52,37.43,104.88,12.05l595.82-465.87
		c29.09-22.84,71.14-17.99,94.27,10.85l0,0c23.23,28.97,18.68,71.27-10.19,94.63l-106.49,84.9
		c-31.91,25.91-36.54,72.87-10.31,104.51l0,0c25.58,30.86,71.11,35.7,102.6,10.89l227.88-176V0H1310.9z"/>
	<circle class="st2" cx="422.16" cy="634.59" r="77.7"/>
	<circle class="st2" cx="75.64" cy="254.09" r="7.01"/>
	<polygon class="st2" points="299.97,103.98 318.27,110.17 299.97,116.35 293.78,134.66 287.6,116.35 269.29,110.17 287.6,103.98 
		293.78,85.68 	"/>
	<polygon class="st2" points="250.99,359.39 269.29,365.57 250.99,371.76 244.81,390.06 238.62,371.76 220.32,365.57 238.62,359.39 
		244.81,341.08 	"/>
</g>
</svg>
