<?xml version="1.0" encoding="utf-8"?>
<!-- Generator: Adobe Illustrator 25.2.0, SVG Export Plug-In . SVG Version: 6.00 Build 0)  -->
<svg version="1.1" id="Layer_1" xmlns="http://www.w3.org/2000/svg" xmlns:xlink="http://www.w3.org/1999/xlink" x="0px" y="0px"
	 viewBox="0 0 1920 1080" style="enable-background:new 0 0 1920 1080;" xml:space="preserve">
<style type="text/css">
	.st0{fill:#FFFFFF;}
	.st1{fill:#1E2346;}
	.st2{fill:#516EB4;}
</style>
<rect class="st0" width="1920" height="1080"/>
<rect class="st1" width="1920" height="1080"/>
<g>
	<path class="st2" d="M1124.19,0L574.72,429.64c-42.85,33.66-49.39,96.09-14.43,137.88l0,0c33.62,40.2,93.16,46.24,134.17,13.62
		L891.1,425.62c37.5-29.7,92.1-22.63,120.8,15.64l0,0c27.37,36.49,21.06,88.07-14.28,116.9L629.76,857.76
		c-41.64,34.11-48.02,95.4-14.31,137.36l0,0c33.66,41.89,94.75,48.91,137.03,15.74l778.46-608.68c38-29.84,92.94-23.51,123.17,14.18
		l0,0c30.36,37.85,24.41,93.12-13.31,123.64l-139.13,110.93c-41.69,33.85-47.74,95.21-13.47,136.55l0,0
		c33.43,40.32,92.91,46.64,134.06,14.23L1920,571.76V0H1124.19z"/>
	<circle class="st2" cx="293.78" cy="771.08" r="99.32"/>
	<circle class="st2" cx="75.64" cy="254.09" r="7.01"/>
	<polygon class="st2" points="299.97,103.98 318.27,110.17 299.97,116.35 293.78,134.66 287.6,116.35 269.29,110.17 287.6,103.98 
		293.78,85.68 	"/>
	<polygon class="st2" points="250.99,359.39 269.29,365.57 250.99,371.76 244.81,390.06 238.62,371.76 220.32,365.57 238.62,359.39 
		244.81,341.08 	"/>
</g>
</svg>
